# xmcd
# 
# Track frame offsets:
#     150
#     14410
#     25487
#     35557
#     47900
#     60470
#     73882
#     84307
#     94432
#     108670
#     121030
#     132372
# 
# Disc length: 1933
# 
# Revision: 2
# Processed by: cddbd v1.5.2PL0 Copyright (c) Steve Scherf et al.
# Submitted via: fre:ac v1.0.31
# 
DISCID=a8078b0c
DTITLE=Himmelblaue Aplensänger - Jodelsänger leben länger
DYEAR=0
DGENRE=
TTITLE0=Anna
TTITLE1=Mein Rucksack
TTITLE2=Steppdeckn
TTITLE3=Bumsfidl g'heirot werd
TTITLE4=Der Feuerwehrtrompeter
TTITLE5=Das Froschkonzert
TTITLE6=Die Lederhosen
TTITLE7=Schnadahüpferl
TTITLE8=Rosarot
TTITLE9=Jodelsänger leben länger
TTITLE10=Abcdefg
TTITLE11=Ja der Urlaub
EXTD=
EXTT0=
EXTT1=
EXTT2=
EXTT3=
EXTT4=
EXTT5=
EXTT6=
EXTT7=
EXTT8=
EXTT9=
EXTT10=
EXTT11=
PLAYORDER=
